<svg height="512" viewBox="0 0 60 60" width="512" xmlns="http://www.w3.org/2000/svg"><g id="004---Fire-Helmet" fill="none"><g id="Icons" transform="translate(0 1)"><path id="Shape" d="m39 28v9c0 9.3888407-7.6111593 17-17 17h-12v-22h6.2c3.82 0 4.72-4 8.53-4z" fill="#ff9801"/><path id="Shape" d="m59 25.82c.0506881.5608639-.1374286 1.1171078-.5181351 1.5320779s-.9187198.6502079-1.4818649.6479221h-32.27c-3.82 0-4.72 4-8.53 4h-14.2c-.40626507.0023626-.77358004-.2413038-.92937095-.6165185s-.069089-.807391.21937095-1.0934815l2.81-2.29h10.13c1.1220017-.0031031 2.2103516-.3834972 3.09-1.08l2.28-1.82c.8904071-.7143628 1.9984516-1.1025313 3.14-1.1h34.15c1.0674962-.028406 1.9814076.7598967 2.11 1.82z" fill="#607d8b"/><path id="Shape" d="m59 25.82c.0506881.5608639-.1374286 1.1171078-.5181351 1.5320779s-.9187198.6502079-1.4818649.6479221h-3c.5295768-.0022328 1.0366497-.2144122 1.41-.59.5845613-.5857956.7479636-1.471111.4110341-2.2269859-.3369296-.7558748-1.1045924-1.22617-1.9310341-1.1830141h3c1.0674962-.028406 1.9814076.7598967 2.11 1.82z" fill="#37474f"/><path id="Shape" d="m54 21.5v2.5h-31.26c-1.1415484-.0025313-2.2495929.3856372-3.14 1.1l-2.28 1.82c-.8796484.6965028-1.9679983 1.0768969-3.09 1.08h-10.13l3-2.42c1.21028156-1.0084535 1.90704228-2.5046555 1.9-4.08.0754692-11.64939856 9.3556012-21.15048612 21-21.5h2.55c11.8591716.01655795 21.4610536 9.64082196 21.45 21.5z" fill="#ffdc00"/><path id="Shape" d="m54 21.5.0000095 2.5h-3.0000095v-2.5c.0137987-11.6858986-9.3170112-21.23887057-21-21.5h2.55c11.8591716.01655795 21.4610536 9.64082196 21.45 21.5z" fill="#fec108"/><path id="Shape" d="m43 28v9c0 11.5979797-9.4020203 21-21 21h-11c-.5522847 0-1-.4477153-1-1v-3h12c9.3888407 0 17-7.6111593 17-17v-9z" fill="#d84315"/><path id="Shape" d="m55 28v16c0 2.209139-1.790861 4-4 4h-8c-1.1045695 0-2-.8954305-2-2 1.3087089-2.8203925 1.9910171-5.8907795 2-9v-9z" fill="#00838f"/><path id="Shape" d="m55 28v16c0 2.209139-1.790861 4-4 4h-8c-1.1045695 0-2-.8954305-2-2 1.3087089-2.8203925 1.9910171-5.8907795 2-9v-9z" fill="#00bcd4"/><path id="Shape" d="m55 28v16c0 2.209139-1.790861 4-4 4h-3c2.209139 0 4-1.790861 4-4v-16z" fill="#00838f"/></g><path id="Shape" d="m3 34h7v24c0 1.1045695.8954305 2 2 2h11c7.784792-.00474 14.9874495-4.1232606 18.94-10.83.5552017.5300107 1.2924379.8270525 2.06.83h8c1.3260824 0 2.597852-.5267842 3.5355339-1.4644661s1.4644661-2.2094515 1.4644661-3.5355339v-15h1c.8447177.0034287 1.6517375-.349428 2.2227973-.9718832.5710598-.6224551.8532349-1.4568209.7772027-2.2981168-.1754313-1.5769431-1.52362-2.7604014-3.11-2.73h-1.89v-1.5c-.0054818-12.408526-10.0515034-22.47243896-22.46-22.5h-2.09c-5.9611498.00530056-11.6758935 2.37912805-15.8863733 6.5989853-4.2104798 4.2198572-6.57158787 9.9398678-6.5636267 15.9010147.00163289 1.2812113-.57078875 2.4957726-1.56 3.31-6.44 5.28-5.75 4.67-5.85 4.77-.57560304.5709018-.74962502 1.4328081-.4406174 2.1823159.30900761.7495079 1.03990952 1.2383316 1.8506174 1.2376841zm14.2 0c4.19 0 5.31-4 8.53-4h13.27v8c0 8.836556-7.163444 16-16 16h-11v-20zm5.8 24h-11v-2h11c9.9411255 0 18-8.0588745 18-18v-8h2v8c0 5.3043298-2.1071368 10.3914081-5.8578644 14.1421356-3.7507275 3.7507276-8.8378058 5.8578644-14.1421356 5.8578644zm29-10h-3.59l4.3-4.29c.3921221-.3921222.3921221-1.0278778 0-1.42-.3921222-.3921221-1.0278778-.3921221-1.42 0l-5.7 5.71h-1.59c-.5189652.0021057-.953297-.3931362-1-.91.3951743-.8895625.7292813-1.8050157 1-2.74l4.65-4.64c.2536586-.2536586.3527235-.623374.259878-.969878-.0928454-.3465041-.3634959-.6171546-.71-.71-.346504-.0928455-.7162194.0062194-.969878.259878l-2.47 2.48c.24-1.89.18-2.2.18-10.77h3.59l-1.3 1.29c-.2979395.2935582-.3817052.7415296-.2099719 1.1229113s.5626808.6155934.9799719.5870887c.265803.0015368.5212812-.1028135.71-.29l2.7-2.71h3.59v.59l-4.71 4.7c-.3921222.3921222-.3921222 1.0278778 0 1.42s1.0278778.3921222 1.42 0l3.29-3.3v11.59c0 1.6568542-1.3431458 3-3 3zm-43.31-20.65c1.4621016-1.1855053 2.3109268-2.9676708 2.31-4.85-.0079616-5.4307138 2.1424326-10.6420168 5.9778396-14.48680143 3.8354071-3.84478461 9.0414433-6.00789838 14.4721604-6.01319857h2.09c11.303927.02755587 20.4545221 9.1960408 20.46 20.5v1.5h-30.26c-1.3602526.0033325-2.6790038.4687741-3.74 1.32l-2.3 1.82c-.7037051.5553443-1.5735598.8582086-2.47.86h-7.33zm-3.23 2.65h9.77c1.3475641-.0044137 2.6544097-.462338 3.71-1.3l2.28-1.82c.7171932-.5682738 1.6049599-.8782876 2.52-.88h34.15c.4247282-.0479682.8329868.1793133 1.015963.5655965.1829763.3862831.1002113.8461548-.205963 1.1444035-.1862606.1847442-.4376601.2888954-.7.29h-32.27c-4.2 0-5.26 4-8.53 4h-14.2z" fill="#000" transform="translate(-1)"/></g></svg>