<svg height="512" viewBox="0 0 60 60" width="512" xmlns="http://www.w3.org/2000/svg"><g id="021---Mountain-Rescue" fill="none"><g id="Icons" transform="translate(0 2)"><path id="Shape" d="m34.83 31.62-1.9 2c-.1900052.2256943-.4699748.3559697-.765.3559697s-.5749948-.1302754-.765-.3559697l-.64-.62c-.1899799-.2292703-.4722463-.3619561-.77-.3619561s-.5800201.1326858-.77.3619561c-.66.69-.63.69-.75.75-.2202579.1562408-.4943428.2167589-.7599114.1677888s-.5000426-.203265-.6500886-.4277888l-1.7-2.27 3.74-6.68c.1670864-.3449903.5166774-.5641101.9-.5641101s.7329136.2191198.9.5641101z" fill="#f5f5f5"/><path id="Shape" d="m34.83 31.62-3.93-7.1c-.1670864-.3449903-.5166774-.5641101-.9-.5641101s-.7329136.2191198-.9.5641101c-.59 1.05-.54 1-.61 1.1l4.45 8z" fill="#cfd8dc"/><path id="Shape" d="m58 57h-26l-13.09-14.42c.87-1.43.14-.09 6.45-11.38 1.41 1.87 1 1.36 1.7 2.27.150046.2245238.38452.3788187.6500886.4277888s.5396535-.011548.7599114-.1677888c.13-.06.12-.09.75-.75.1899799-.2292703.4722463-.3619561.77-.3619561s.5800201.1326858.77.3619561l.64.68c.1900052.2256943.4699748.3559697.765.3559697s.5749948-.1302754.765-.3559697l1.9-2 6.31 11.34c2.07-2.65.6-.73 2.23-2.84.1990803-.2843729.5313946-.4451592.8779279-.4247749.3465334.0203843.6577051.2190227.8220721.5247749 7.07 12.16 5.93 10.17 6.66 11.44.1685097.2883813.4698719.4735935.8032724.4936779.3334006.0200844.6548174-.127611.8567276-.3936779.47-.61.19-.26 1.16-1.52.2042911-.2950331.5510073-.4579802.9085244-.4269816s.6710132.2511896.8214756.5769816l2.61 5.12c.1559692.3095182.1405453.6777279-.0407631.9731178-.1813083.29539-.5026437.4758333-.8492369.4768822z" fill="#7f8e94"/><path id="Shape" d="m32 57.0001522-30-.0001522c-.35422662.0061696-.6852768-.175546-.87026565-.4776945s-.19629984-.6796228-.02973435-.9923055c1.71-3.37 1.12-2.22 2.6-5.1.15046238-.325792.4639585-.545983.82147559-.5769816s.70423326.1319485.90852441.4269816c.36.46-.31-.4 1.16 1.52.20191019.2660669.52332703.4137623.85672758.3936779.33340056-.0200844.63476273-.2052966.80327242-.4936779.27-.47 5.82-10 6.72-11.53.155613-.2975912.4502086-.4972042.7842826-.5314166s.6630148.1015445.8757174.3614166c1.37 1.57-5.15-5.7 15.37 17.0001522z" fill="#9e9e9e"/><path id="Shape" d="m48 .8v7c.0023623.83883787-.6435211 1.53709024-1.48 1.6-4 .3-.56-.22-18.24 1.38-.7485005.0916693-1.3427043.6735793-1.45 1.42-.5801374 3.9602195-3.9977367 6.882267-8 6.84h-13.78c-1.07134393.0001205-2.09795912-.4295331-2.84985349-1.1927059s-1.16621668-1.7960707-1.15014651-2.8672941c-.01764134-.3264285-.01764134-.6535715 0-.98h7.57c.63561286-.0026372 1.24399382-.2583555 1.6906202-.7106116.4466263-.4522561.6947043-1.0637924.6893798-1.6993884v-5.59h32.19c.3761477.0216501.7152377-.22534139.81-.59 1.19-4.5.94-3.51 1.31-4.82.0941729-.33530476.3921429-.57287546.74-.59h1.15c.4418278 0 .8.3581722.8.8z" fill="#f44335"/><path id="Shape" d="m11.000084 6-.000084 5.59c.0053245.635596-.2427535 1.2471323-.6893798 1.6993884-.44662638.4522561-1.05500734.7079744-1.6906202.7106116-5.53 0-7.46 0-7.57 0 .46646012-4.54332889 4.29278866-7.99825309 8.86-8z" fill="#009688"/><path id="Shape" d="m32 57h-3.6l-14.17-15.55.77-1.28c.1583514-.2854495.4460575-.4756435.7707265-.5095047s.645429.0928732.8592735.3395047c1.08 1.19-2.11-2.35 15.37 17z" fill="#707070"/><g fill="#545c60"><path id="Shape" d="m39.9 40.78-1.76 2.22c-2.33-4.16 4 7.26-5.19-9.38l1.88-2z"/><path id="Shape" d="m51.18 50.76-.79 1c-.2019102.2660669-.523327.4137623-.8567276.3936779-.3334005-.0200844-.6347627-.2052966-.8032724-.4936779l-6.14-10.49.78-1c.1990803-.2843729.5313946-.4451592.8779279-.4247749.3465334.0203843.6577051.2190227.8220721.5247749z"/><path id="Shape" d="m58 57h-3c.3465932-.0010489.6679286-.1814922.8492369-.4768822.1813084-.2953899.1967323-.6635996.0407631-.9731178l-2.15-4.21.81-1.06c.2042911-.2950331.5510073-.4579802.9085244-.4269816s.6710132.2511896.8214756.5769816l2.61 5.12c.1559692.3095182.1405453.6777279-.0407631.9731178-.1813083.29539-.5026437.4758333-.8492369.4768822z"/></g><path id="Shape" d="m48 .8v7c.0023623.83883787-.6435211 1.53709024-1.48 1.6l-1.8.14c.1833084-.26424177.2810475-.57840306.28-.9 0-8.08-.11-6.64.27-8 .079163-.36898894.402656-.63441908.78-.64h1.15c.4418278 0 .8.3581722.8.8z" fill="#c81e1e"/><path id="Shape" d="m27.12 11.44c-.1427585.2187587-.2412803.4633646-.29.72-.5801374 3.9602195-3.9977367 6.882267-8 6.84h-3c4 0 7.48-2.12 8-6 .1072957-.7464207.7014995-1.3283307 1.45-1.42z" fill="#c81e1e"/><path id="Shape" d="m11 6v5.59c.0053245.635596-.2427535 1.2471323-.6893798 1.6993884-.44662638.4522561-1.05500734.7079744-1.6906202.7106116h-3c.63561286-.0026372 1.24399382-.2583555 1.69062017-.7106116s.69470428-1.0637924.68937983-1.6993884v-5.38c.98690645-.1979921 1.99513434-.26856805 3-.21z" fill="#00695c"/></g><g id="Layer_2" fill="#000"><path id="Shape" d="m57.17 52c-.3069294-.6331498-.9239883-1.0584376-1.6249191-1.1199228-.7009307-.0614851-1.3826081.2498785-1.7950809.8199228l-1.16 1.5-6.66-11.42c-.3305565-.5920437-.9385762-.9762791-1.6151919-1.0207136-.6766158-.0444344-1.3296635.2569846-1.7348081.8007136l-1.3 1.66c-6.39-11.54 4.11 7.27-9.51-17.22-.3457873-.657276-1.0273153-1.068818-1.77-1.068818s-1.4242127.411542-1.77 1.068818l-9.45 16.88-1.4-1.55c-.4279621-.4889734-1.0668021-.7395537-1.7130802-.6719431s-1.2194246.4449834-1.5369198 1.0119431l-6.72 11.53-1.17-1.53c-.41806566-.5628515-1.10033998-.8656844-1.79820794-.7981488-.69786797.0675356-1.30941255.4955768-1.61179206 1.1281488l-2.6 5.1c-.3111641.6174524-.2813357 1.3518288.0788793 1.9420116s.99971643.9524484 1.6911207.9579884h56c.6931864-.0020978 1.3358572-.3629844 1.6984739-.9537643.3626166-.59078.3934646-1.3271992.0815261-1.9462357zm-27.17-25 3.57 6.46-1.44 1.54-.65-.68c-.3922003-.4082664-.9338706-.6390281-1.5-.6390281s-1.1077997.2307617-1.5.6390281l-.63.57-1.3-1.73zm-28 31 2.65-5.1 1.16 1.52c.40538722.5311884 1.04927291.8248336 1.71614665.7826519.66687375-.0421818 1.26862781-.4146175 1.60385335-.9926519l6.77-11.54 13.88 15.33zm30.47 0-12.27-13.56 5.29-9.44.77 1c.362324.4891275.9224202.7929705 1.53.83 1 .06 1.47-.52 2.24-1.23l.64.67c.3796661.4305009.9259988.6771243 1.5.6771243s1.1203339-.2466234 1.5-.6771243l1-1 9.51 17.17c.2639697.4812266.8664821.6597488 1.35.4.2338677-.1268369.4075519-.3416385.4826217-.596876.0750699-.2552375.0453363-.5298679-.0826217-.763124l-3.54-6.4 1.87-2.34 6.6 11.46c.3352255.5780344.9369796.9504701 1.6038533.9926519.6668738.0421817 1.3107595-.2514635 1.7161467-.7826519l1.21-1.53 2.61 5.12z"/><path id="Shape" d="m5.05 22h2.95v2h-3c-.55228475 0-1 .4477153-1 1s.44771525 1 1 1h7v10c0 .5522847.4477153 1 1 1s1-.4477153 1-1v-10h8c.5522847 0 1-.4477153 1-1s-.4477153-1-1-1h-3v-2c4.41986-.0655917 8.1471888-3.3111569 8.82-7.68.0298169-.2888842.2449665-.524331.53-.58l18.24-1.37c1.3628258-.1047331 2.4140184-1.2431617 2.41-2.61v-7c-.0269638-.97618573-.8234549-1.75497697-1.8-1.76h-1.15c-.8128453.00233321-1.5244413.5462543-1.74 1.33l-1.31 4.67h-25v-3h14c.5522847 0 1-.44771525 1-1s-.4477153-1-1-1h-14v-1c0-.55228475-.4477153-1-1-1s-1 .44771525-1 1v1h-14c-.55228475 0-1 .44771525-1 1s.44771525 1 1 1h14v3h-6.09c-5.47799104.01653325-9.91002495 4.461984-9.91 9.94-.0026556 1.3410751.52822387 2.6281328 1.47557057 3.5773555.94734669.9492226 2.23335174 1.4826471 3.57442943 1.4826445zm5 2v-2h2v2zm4 0v-2h3v2zm29.14-15c.8128453-.00233321 1.5244413-.5462543 1.74-1.33l1.27-4.67h.8000999l-.0000999 6.76c.0058056.3183391-.2420171.5838635-.56.6l-18.27 1.38c-1.1972808.1381151-2.1505679 1.0667482-2.32 2.26-.5369564 3.451165-3.5073142 5.997186-7 6h-13.8c-1.65685425 0-3-1.3431458-3-3h6.57c1.8738604-.0110147 3.3855438-1.5361154 3.38-3.41v-4.59zm-33.28 0c.09 0 .09-.52.09 4.59.0055737.7693457-.61071233 1.3990292-1.38 1.41h-6.37c.87894834-3.517579 4.0342871-5.98912373 7.66-6z"/><path id="Shape" d="m17 13h-1c-.5522847 0-1 .4477153-1 1s.4477153 1 1 1h1v1c0 .5522847.4477153 1 1 1s1-.4477153 1-1v-1h1c.5522847 0 1-.4477153 1-1s-.4477153-1-1-1h-1v-1c0-.5522847-.4477153-1-1-1s-1 .4477153-1 1z"/></g></g></svg>